<svg width="47" height="51" viewBox="0 0 47 51" fill="none" xmlns="http://www.w3.org/2000/svg">
<path d="M9.4 31.3333H12.5333C14.2645 31.3333 15.6667 29.9296 15.6667 28.1999V25.0667C15.6667 23.3355 14.2645 21.9333 12.5333 21.9333H9.4C7.66883 21.9333 6.26667 23.3355 6.26667 25.0667V28.1999C6.26667 29.9296 7.66883 31.3333 9.4 31.3333ZM9.4 25.0667H12.5333V28.1999H9.4V25.0667ZM34.4667 43.8666H37.6C39.3312 43.8666 40.7334 42.4644 40.7334 40.7333V37.6C40.7334 35.8689 39.3312 34.4667 37.6 34.4667H34.4667C32.7371 34.4667 31.3333 35.8689 31.3333 37.6V40.7333C31.3333 42.4644 32.7355 43.8666 34.4667 43.8666ZM34.4667 37.6H37.6V40.7333H34.4667V37.6ZM34.4667 31.3333H37.6C39.3312 31.3333 40.7334 29.9296 40.7334 28.1999V25.0667C40.7334 23.3355 39.3312 21.9333 37.6 21.9333H34.4667C32.7371 21.9333 31.3333 23.3355 31.3333 25.0667V28.1999C31.3333 29.9296 32.7355 31.3333 34.4667 31.3333ZM34.4667 25.0667H37.6V28.1999H34.4667V25.0667ZM40.7334 3.13333H34.4667V1.56667C34.4667 0.701851 33.7648 0 32.9001 0C32.0353 0 31.3334 0.701851 31.3334 1.56667V3.13333H15.6667V1.56667C15.6667 0.701851 14.9648 0 14.1 0C13.2352 0 12.5333 0.701851 12.5333 1.56667V3.13333H6.26667C2.80595 3.13333 0 5.93928 0 9.4V43.8666C0 47.3274 2.80595 50.1334 6.26667 50.1334H40.7333C44.1941 50.1334 47 47.3275 47 43.8666V9.4C47 5.9392 44.1941 3.13333 40.7334 3.13333ZM43.8667 43.8666C43.8667 45.5978 42.4646 47 40.7334 47H6.26667C4.5355 47 3.13333 45.5962 3.13333 43.8666V15.6667H43.8667V43.8666H43.8667ZM43.8667 12.5333H3.13333V9.4C3.13333 7.66883 4.5355 6.26667 6.26667 6.26667H12.5333V7.83333C12.5333 8.69815 13.2352 9.4 14.1 9.4C14.9648 9.4 15.6667 8.69815 15.6667 7.83333V6.26667H31.3333V7.83333C31.3333 8.69815 32.0353 9.4 32.9 9.4C33.7647 9.4 34.4667 8.69815 34.4667 7.83333V6.26667H40.7334C42.4646 6.26667 43.8667 7.66883 43.8667 9.4V12.5333ZM21.9333 43.8666H25.0667C26.7978 43.8666 28.2 42.4644 28.2 40.7333V37.6C28.2 35.8689 26.7978 34.4667 25.0667 34.4667H21.9333C20.2038 34.4667 18.8 35.8689 18.8 37.6V40.7333C18.8 42.4644 20.2022 43.8666 21.9333 43.8666ZM21.9333 37.6H25.0667V40.7333H21.9333V37.6ZM21.9333 31.3333H25.0667C26.7978 31.3333 28.2 29.9296 28.2 28.1999V25.0667C28.2 23.3355 26.7978 21.9333 25.0667 21.9333H21.9333C20.2038 21.9333 18.8 23.3355 18.8 25.0667V28.1999C18.8 29.9296 20.2022 31.3333 21.9333 31.3333ZM21.9333 25.0667H25.0667V28.1999H21.9333V25.0667ZM9.4 43.8666H12.5333C14.2645 43.8666 15.6667 42.4644 15.6667 40.7333V37.6C15.6667 35.8689 14.2645 34.4667 12.5333 34.4667H9.4C7.66883 34.4667 6.26667 35.8689 6.26667 37.6V40.7333C6.26667 42.4644 7.66883 43.8666 9.4 43.8666ZM9.4 37.6H12.5333V40.7333H9.4V37.6Z" fill="white"/>
</svg>
