<svg width="277" height="296" viewBox="0 0 277 296" fill="none" xmlns="http://www.w3.org/2000/svg">
<path d="M55.4 184.667H73.8667C84.0695 184.667 92.3333 176.393 92.3333 166.2V147.733C92.3333 137.53 84.0695 129.267 73.8667 129.267H55.4C45.1972 129.267 36.9333 137.53 36.9333 147.733V166.2C36.9333 176.393 45.1972 184.667 55.4 184.667ZM55.4 147.733H73.8667V166.2H55.4V147.733ZM203.133 258.533H221.6C231.803 258.533 240.067 250.269 240.067 240.067V221.6C240.067 211.398 231.803 203.134 221.6 203.134H203.133C192.94 203.134 184.667 211.398 184.667 221.6V240.067C184.667 250.269 192.93 258.533 203.133 258.533ZM203.133 221.6H221.6V240.067H203.133V221.6ZM203.133 184.667H221.6C231.803 184.667 240.067 176.393 240.067 166.2V147.733C240.067 137.53 231.803 129.267 221.6 129.267H203.133C192.94 129.267 184.667 137.53 184.667 147.733V166.2C184.667 176.393 192.93 184.667 203.133 184.667ZM203.133 147.733H221.6V166.2H203.133V147.733ZM240.067 18.4667H203.133V9.23333C203.133 4.13644 198.997 0 193.9 0C188.804 0 184.667 4.13644 184.667 9.23333V18.4667H92.3338V9.23333C92.3333 4.13644 88.1969 0 83.1 0C78.0031 0 73.8667 4.13644 73.8667 9.23333V18.4667H36.9333C16.5372 18.4667 0 35.0038 0 55.4V258.533C0 278.929 16.5372 295.467 36.9333 295.467H240.067C260.463 295.467 277 278.93 277 258.533V55.4C277 35.0034 260.463 18.4667 240.067 18.4667ZM258.534 258.533C258.534 268.736 250.27 277 240.067 277H36.9333C26.7305 277 18.4667 268.727 18.4667 258.533V92.3333H258.533V258.533H258.534ZM258.534 73.8667H18.4667V55.4C18.4667 45.1972 26.7305 36.9333 36.9333 36.9333H73.8667V46.1667C73.8667 51.2636 78.0031 55.4 83.1 55.4C88.1969 55.4 92.3333 51.2636 92.3333 46.1667V36.9333H184.667V46.1667C184.667 51.2636 188.804 55.4 193.9 55.4C198.996 55.4 203.133 51.2636 203.133 46.1667V36.9333H240.067C250.27 36.9333 258.534 45.1972 258.534 55.4V73.8667ZM129.267 258.533H147.733C157.936 258.533 166.2 250.269 166.2 240.067V221.6C166.2 211.398 157.936 203.134 147.733 203.134H129.267C119.073 203.134 110.8 211.398 110.8 221.6V240.067C110.8 250.269 119.064 258.533 129.267 258.533ZM129.267 221.6H147.733V240.067H129.267V221.6ZM129.267 184.667H147.733C157.936 184.667 166.2 176.393 166.2 166.2V147.733C166.2 137.53 157.936 129.267 147.733 129.267H129.267C119.073 129.267 110.8 137.53 110.8 147.733V166.2C110.8 176.393 119.064 184.667 129.267 184.667ZM129.267 147.733H147.733V166.2H129.267V147.733ZM55.4 258.533H73.8667C84.0695 258.533 92.3333 250.269 92.3333 240.067V221.6C92.3333 211.398 84.0695 203.134 73.8667 203.134H55.4C45.1972 203.134 36.9333 211.398 36.9333 221.6V240.067C36.9333 250.269 45.1972 258.533 55.4 258.533ZM55.4 221.6H73.8667V240.067H55.4V221.6Z" fill="white"/>
</svg>
