<svg width="51" height="51" viewBox="0 0 51 51" fill="none" xmlns="http://www.w3.org/2000/svg">
<path opacity="0.9" d="M26.775 1.27499C17.85 1.27499 9.945 6.11999 5.865 13.515L0 7.64999V24.225H16.575L9.435 17.085C12.75 10.71 19.125 6.37499 26.775 6.37499C37.23 6.37499 45.9 15.045 45.9 25.5C45.9 35.955 37.23 44.625 26.775 44.625C18.36 44.625 11.475 39.27 8.67 31.875H3.315C6.12 42.075 15.555 49.725 26.775 49.725C40.29 49.725 51 38.76 51 25.5C51 12.24 40.035 1.27499 26.775 1.27499ZM22.95 14.025V27.03L34.935 34.17L36.975 30.855L26.775 24.735V14.025H22.95Z" fill="white"/>
</svg>
