<svg width="55" height="55" viewBox="0 0 55 55" fill="none" xmlns="http://www.w3.org/2000/svg">
<path d="M51.5625 25.7812C51.2043 25.7789 50.8558 25.6648 50.5656 25.4547L27.5 8.98906L4.43438 25.4547C4.06434 25.6738 3.62558 25.7463 3.20472 25.6578C2.78385 25.5692 2.41148 25.3262 2.16109 24.9765C1.91071 24.6268 1.80052 24.196 1.85227 23.769C1.90402 23.3421 2.11396 22.95 2.44063 22.6703L26.5031 5.48281C26.7942 5.27556 27.1427 5.16418 27.5 5.16418C27.8573 5.16418 28.2058 5.27556 28.4969 5.48281L52.5594 22.6703C52.8528 22.8827 53.0717 23.1825 53.1846 23.5267C53.2975 23.8709 53.2988 24.242 53.1883 24.587C53.0777 24.932 52.861 25.2333 52.569 25.4477C52.2771 25.6622 51.9248 25.7789 51.5625 25.7812Z" fill="white"/>
<path d="M8.59375 15.4688C8.13791 15.4688 7.70074 15.2877 7.37841 14.9653C7.05608 14.643 6.875 14.2058 6.875 13.75V6.875C6.875 6.41916 7.05608 5.98199 7.37841 5.65966C7.70074 5.33733 8.13791 5.15625 8.59375 5.15625H15.4688C15.9246 5.15625 16.3618 5.33733 16.6841 5.65966C17.0064 5.98199 17.1875 6.41916 17.1875 6.875C17.1875 7.33084 17.0064 7.76801 16.6841 8.09034C16.3618 8.41267 15.9246 8.59375 15.4688 8.59375H10.3125V13.75C10.3125 14.2058 10.1314 14.643 9.80909 14.9653C9.48676 15.2877 9.04959 15.4688 8.59375 15.4688Z" fill="white"/>
<path d="M42.9688 49.8438H34.375C33.9192 49.8438 33.482 49.6627 33.1597 49.3403C32.8373 49.018 32.6562 48.5808 32.6562 48.125V36.0938H22.3438V48.125C22.3438 48.5808 22.1627 49.018 21.8403 49.3403C21.518 49.6627 21.0808 49.8438 20.625 49.8438H12.0312C10.6637 49.8438 9.35222 49.3005 8.38523 48.3335C7.41825 47.3665 6.875 46.055 6.875 44.6875V27.5C6.875 27.0442 7.05608 26.607 7.37841 26.2847C7.70074 25.9623 8.13791 25.7812 8.59375 25.7812C9.04959 25.7812 9.48676 25.9623 9.80909 26.2847C10.1314 26.607 10.3125 27.0442 10.3125 27.5V44.6875C10.3125 45.1433 10.4936 45.5805 10.8159 45.9028C11.1382 46.2252 11.5754 46.4062 12.0312 46.4062H18.9062V34.375C18.9062 33.9192 19.0873 33.482 19.4097 33.1597C19.732 32.8373 20.1692 32.6562 20.625 32.6562H34.375C34.8308 32.6562 35.268 32.8373 35.5903 33.1597C35.9127 33.482 36.0938 33.9192 36.0938 34.375V46.4062H42.9688C43.4246 46.4062 43.8618 46.2252 44.1841 45.9028C44.5064 45.5805 44.6875 45.1433 44.6875 44.6875V27.5C44.6875 27.0442 44.8686 26.607 45.1909 26.2847C45.5132 25.9623 45.9504 25.7812 46.4062 25.7812C46.8621 25.7812 47.2993 25.9623 47.6216 26.2847C47.9439 26.607 48.125 27.0442 48.125 27.5V44.6875C48.125 46.055 47.5818 47.3665 46.6148 48.3335C45.6478 49.3005 44.3363 49.8438 42.9688 49.8438Z" fill="white"/>
</svg>
